# Blender 5.1.0
# www.blender.org
o TABLE.005
v -1.018338 0.920391 -0.680381
v -1.018338 0.920391 -0.658728
v -1.413651 0.920390 -0.658728
v -1.413651 0.920390 -0.680382
v -0.563729 0.465352 -0.680381
v -0.563729 0.465352 -0.658727
v 1.415756 0.465352 -0.680379
v 1.415756 0.465352 -0.658726
v 1.415756 0.681914 -0.680379
v 1.415756 0.681914 -0.658726
v 0.236349 0.681914 -0.680380
v 0.236349 0.681914 -0.658727
v -0.239744 1.158437 -0.680381
v -0.239744 1.158437 -0.658727
v -1.413651 1.158437 -0.680382
v -1.413651 1.158437 -0.658728
vn -0.0000 -1.0000 -0.0000
vn -0.7074 -0.7068 -0.0000
vn 1.0000 -0.0000 -0.0000
vn -0.0000 1.0000 -0.0000
vn 0.7074 0.7068 -0.0000
vn -1.0000 -0.0000 -0.0000
vn -0.0000 -0.0000 1.0000
vn -0.0000 -0.0000 -1.0000
vt -0.546900 4.132800
vt -7.734400 4.132800
vt 7.718800 -4.140600
vt 43.709400 -4.140600
vt 43.709400 -0.203100
vt 22.265600 -0.203100
vt 13.609400 8.460900
vt -7.734400 8.460900
s 1
f 1/1/1 2/1/1 3/2/1 4/2/1
f 5/3/2 6/3/2 2/1/2 1/1/2
f 7/4/1 8/4/1 6/3/1 5/3/1
f 9/5/3 10/5/3 8/4/3 7/4/3
f 11/6/4 12/6/4 10/5/4 9/5/4
f 13/7/5 14/7/5 12/6/5 11/6/5
f 15/8/4 16/8/4 14/7/4 13/7/4
f 4/2/6 3/2/6 16/8/6 15/8/6
f 14/7/7 16/8/7 3/2/7 2/1/7
f 14/7/7 2/1/7 6/3/7 12/6/7
f 8/4/7 10/5/7 12/6/7 6/3/7
f 11/6/8 9/5/8 7/4/8 5/3/8
f 13/7/8 11/6/8 5/3/8 1/1/8
f 13/7/8 1/1/8 4/2/8 15/8/8
