# Blender 5.1.0
# www.blender.org
o TABLE.004
v 1.501922 0.378781 -0.712627
v -1.502439 0.378780 -0.712628
v -1.502441 0.378780 0.584489
v 1.501921 0.378781 0.584491
v -1.502440 0.327657 -0.712628
v -1.502441 0.327657 0.584489
v 1.501922 0.327657 -0.712627
v 1.501921 0.327658 0.584491
vn -0.0000 1.0000 -0.0000
vn -1.0000 -0.0000 -0.0000
vn -0.0000 -1.0000 -0.0000
vn 1.0000 -0.0000 -0.0000
vn -0.0000 -0.0000 -1.0000
vn -0.0000 -0.0000 1.0000
vt 1.499600 0.243800
vt 1.499600 0.756200
vt -0.499600 0.756200
vt -0.499600 0.243800
vt -0.499600 0.999500
vt -0.499600 0.000500
vt 1.499600 0.000500
vt 1.499600 0.999500
vt 0.000500 0.243800
vt 0.999500 0.243800
vt 0.999500 0.756200
vt 0.000500 0.756200
s 1
f 1/1/1 2/2/1 3/3/1 4/4/1
f 2/5/2 5/6/2 6/7/2 3/8/2
f 5/3/3 7/4/3 8/1/3 6/2/3
f 7/7/4 1/8/4 4/5/4 8/6/4
f 1/9/5 7/10/5 5/11/5 2/12/5
f 6/12/6 8/9/6 4/10/6 3/11/6
