# Blender 5.1.0
# www.blender.org
o TABLE.007
v -1.018338 0.920391 -0.712686
v -1.018338 0.920391 -0.626072
v -0.563729 0.465352 -0.626071
v -0.563729 0.465352 -0.712686
v -1.413651 0.920390 -0.712686
v -1.413651 0.920390 -0.626072
v -1.413651 0.833594 -0.712686
v -1.413651 0.833594 -0.626072
v -1.054432 0.833594 -0.712686
v -1.054432 0.833594 -0.626072
v -0.686619 0.465352 -0.712686
v -0.686619 0.465352 -0.626072
v -0.239744 1.158437 -0.712685
v -0.239744 1.158437 -0.626071
v -1.500448 1.158437 -0.626072
v -1.500447 1.158437 -0.712687
v 0.236349 0.681914 -0.712685
v 0.236349 0.681914 -0.626071
v 1.502553 0.681914 -0.712683
v 1.502553 0.681914 -0.626069
v 1.502553 0.768711 -0.712683
v 1.502553 0.768711 -0.626069
v 0.272443 0.768711 -0.712685
v 0.272443 0.768711 -0.626071
v -0.203651 1.245235 -0.712685
v -0.203651 1.245235 -0.626071
v -1.500448 1.245234 -0.712686
v -1.500448 1.245234 -0.626072
v -1.413651 0.378617 -0.712686
v -1.413651 0.378617 -0.626072
v -1.500447 0.378617 -0.626072
v -1.500447 0.378617 -0.712686
v -1.413651 1.158437 -0.712686
v -1.413651 1.158437 -0.626072
v 1.415756 0.378985 -0.712683
v 1.415756 0.378985 -0.626069
v -1.413651 0.378984 -0.626072
v -1.413651 0.378984 -0.712686
v 1.415756 0.465352 -0.712683
v 1.415756 0.465352 -0.626069
v -1.413651 0.465352 -0.712686
v -1.413651 0.465352 -0.626072
v 1.502553 0.378617 -0.712683
v 1.502553 0.378617 -0.626069
v 1.415756 0.378617 -0.626069
v 1.415756 0.378617 -0.712683
v 1.415756 0.681914 -0.712683
v 1.415756 0.681914 -0.626069
vn 0.7074 0.7068 -0.0000
vn -0.0000 1.0000 -0.0000
vn -1.0000 -0.0000 -0.0000
vn -0.0000 -1.0000 -0.0000
vn -0.7075 -0.7067 -0.0000
vn -0.7074 -0.7068 -0.0000
vn 1.0000 -0.0000 -0.0000
vn -0.0000 -0.0000 1.0000
vn -0.0000 -0.0000 -1.0000
vt -0.546900 4.132800
vt 7.718800 -4.140600
vt -7.734400 4.132800
vt -7.734400 2.554700
vt -1.203100 2.554700
vt 5.484400 -4.140600
vt 13.609400 8.460900
vt -9.312500 8.460900
vt 22.265600 -0.203100
vt 45.287498 -0.203100
vt 45.287498 1.375000
vt 22.921900 1.375000
vt 14.265600 10.039100
vt -9.312500 10.039100
vt -7.734400 -35.242199
vt -9.312500 -35.242199
vt -7.734400 8.460900
vt 43.709400 -5.710900
vt -7.734400 -5.710900
vt 43.709400 -4.140600
vt -7.734400 -4.140600
vt 45.287498 -35.242199
vt 43.709400 -35.242199
vt 43.709400 -0.203100
s 1
f 1/1/1 2/1/1 3/2/1 4/2/1
f 5/3/2 6/3/2 2/1/2 1/1/2
f 7/4/3 8/4/3 6/3/3 5/3/3
f 9/5/4 10/5/4 8/4/4 7/4/4
f 11/6/5 12/6/5 10/5/5 9/5/5
f 4/2/4 3/2/4 12/6/4 11/6/4
f 13/7/4 14/7/4 15/8/4 16/8/4
f 17/9/6 18/9/6 14/7/6 13/7/6
f 19/10/4 20/10/4 18/9/4 17/9/4
f 21/11/7 22/11/7 20/10/7 19/10/7
f 23/12/2 24/12/2 22/11/2 21/11/2
f 25/13/1 26/13/1 24/12/1 23/12/1
f 27/14/2 28/14/2 26/13/2 25/13/2
f 16/8/3 15/8/3 28/14/3 27/14/3
f 29/15/4 30/15/4 31/16/4 32/16/4
f 33/17/7 34/17/7 30/15/7 29/15/7
f 16/8/2 15/8/2 34/17/2 33/17/2
f 32/16/3 31/16/3 15/8/3 16/8/3
f 35/18/4 36/18/4 37/19/4 38/19/4
f 39/20/7 40/20/7 36/18/7 35/18/7
f 41/21/2 42/21/2 40/20/2 39/20/2
f 38/19/3 37/19/3 42/21/3 41/21/3
f 43/22/4 44/22/4 45/23/4 46/23/4
f 19/10/7 20/10/7 44/22/7 43/22/7
f 47/24/2 48/24/2 20/10/2 19/10/2
f 46/23/3 45/23/3 48/24/3 47/24/3
f 12/6/8 3/2/8 2/1/8 10/5/8
f 6/3/8 8/4/8 10/5/8 2/1/8
f 26/13/8 28/14/8 15/8/8 14/7/8
f 20/10/8 22/11/8 24/12/8 18/9/8
f 14/7/8 18/9/8 24/12/8 26/13/8
f 34/17/8 15/8/8 31/16/8 30/15/8
f 40/20/8 42/21/8 37/19/8 36/18/8
f 20/10/8 48/24/8 45/23/8 44/22/8
f 9/5/9 7/4/9 5/3/9 1/1/9
f 11/6/9 9/5/9 1/1/9 4/2/9
f 23/12/9 21/11/9 19/10/9 17/9/9
f 23/12/9 17/9/9 13/7/9 25/13/9
f 25/13/9 13/7/9 16/8/9 27/14/9
f 32/16/9 16/8/9 33/17/9 29/15/9
f 38/19/9 41/21/9 39/20/9 35/18/9
f 46/23/9 47/24/9 19/10/9 43/22/9
